<svg width="42" height="42" viewBox="0 0 42 42" fill="none" xmlns="http://www.w3.org/2000/svg">
<path fill-rule="evenodd" clip-rule="evenodd" d="M21 0.513672C9.4017 0.513672 0 9.70753 0 21.0494C0 32.3913 9.4017 41.5852 21 41.5852C32.5983 41.5852 42 32.3913 42 21.0494C42 9.70753 32.5983 0.513672 21 0.513672ZM13.65 15.9155C13.65 14.9716 13.8401 14.037 14.2095 13.1649C14.5789 12.2929 15.1203 11.5006 15.8028 10.8331C16.4853 10.1657 17.2955 9.63629 18.1873 9.27509C19.079 8.91388 20.0348 8.72797 21 8.72797C21.9652 8.72797 22.921 8.91388 23.8127 9.27509C24.7045 9.63629 25.5147 10.1657 26.1972 10.8331C26.8797 11.5006 27.4211 12.2929 27.7905 13.1649C28.1599 14.037 28.35 14.9716 28.35 15.9155C28.35 17.8217 27.5756 19.6499 26.1972 20.9978C24.8188 22.3457 22.9493 23.103 21 23.103C19.0507 23.103 17.1812 22.3457 15.8028 20.9978C14.4244 19.6499 13.65 17.8217 13.65 15.9155ZM34.1418 31.2844C32.5693 33.2176 30.5708 34.7786 28.2952 35.851C26.0197 36.9234 23.526 37.4796 21 37.478C18.474 37.4796 15.9803 36.9234 13.7047 35.851C11.4292 34.7786 9.4307 33.2176 7.8582 31.2844C11.2623 28.8961 15.9075 27.2101 21 27.2101C26.0925 27.2101 30.7377 28.8961 34.1418 31.2844Z" fill="#F8F8F8"/>
</svg>
