<svg width="33" height="32" viewBox="0 0 33 32" fill="none" xmlns="http://www.w3.org/2000/svg">
<g filter="url(#filter0_d_293_29)">
<path d="M16.376 23.848C9.88 23.848 4.632 18.6 4.632 12.104C4.632 5.608 9.88 0.359999 16.376 0.359999C22.872 0.359999 28.12 5.608 28.12 12.104C28.12 18.6 22.808 23.848 16.376 23.848ZM16.376 21.544C21.592 21.544 25.816 17.32 25.816 12.104C25.816 6.888 21.592 2.664 16.376 2.664C11.16 2.664 6.936 6.888 6.936 12.104C6.936 17.32 11.16 21.544 16.376 21.544ZM15.224 17.992L15.384 13.8L11.864 16.04L10.712 14.056L14.392 12.104L10.712 10.152L11.864 8.168L15.384 10.408L15.224 6.216H17.528L17.368 10.408L20.888 8.168L22.04 10.152L18.36 12.104L22.04 14.056L20.888 16.04L17.368 13.8L17.528 17.992H15.224Z" fill="#FAAA30"/>
</g>
<defs>
<filter id="filter0_d_293_29" x="0.631836" y="0.359985" width="31.4883" height="31.488" filterUnits="userSpaceOnUse" color-interpolation-filters="sRGB">
<feFlood flood-opacity="0" result="BackgroundImageFix"/>
<feColorMatrix in="SourceAlpha" type="matrix" values="0 0 0 0 0 0 0 0 0 0 0 0 0 0 0 0 0 0 127 0" result="hardAlpha"/>
<feOffset dy="4"/>
<feGaussianBlur stdDeviation="2"/>
<feComposite in2="hardAlpha" operator="out"/>
<feColorMatrix type="matrix" values="0 0 0 0 0 0 0 0 0 0 0 0 0 0 0 0 0 0 0.25 0"/>
<feBlend mode="normal" in2="BackgroundImageFix" result="effect1_dropShadow_293_29"/>
<feBlend mode="normal" in="SourceGraphic" in2="effect1_dropShadow_293_29" result="shape"/>
</filter>
</defs>
</svg>
