<svg width="67" height="73" viewBox="0 0 67 73" fill="none" xmlns="http://www.w3.org/2000/svg">
<g clip-path="url(#clip0_72_644)">
<path d="M33.5 -0.165038C40.8182 -0.165728 47.8488 2.70391 53.1006 7.83518C58.3523 12.9665 61.412 19.9557 61.6307 27.3204L61.644 28.1703V43.543L66.3252 55.6891C66.451 56.018 66.536 56.3569 66.5802 56.7057L66.6133 57.2324C66.613 58.2887 66.2235 59.3073 65.5202 60.0911C64.8168 60.8749 63.8497 61.3682 62.806 61.4755L62.3756 61.4988L45.094 61.5022C45.0832 64.5353 43.9001 67.4451 41.7954 69.6153C39.6907 71.7855 36.8296 73.0456 33.818 73.1288C30.8065 73.212 27.8811 72.1117 25.6613 70.061C23.4416 68.0103 22.1019 65.1701 21.9259 62.1422L21.906 61.4955L4.61444 61.4988C3.96164 61.4993 3.31755 61.348 2.73241 61.0566C2.14727 60.7652 1.63691 60.3417 1.24114 59.819C0.84537 59.2963 0.57489 58.6886 0.4508 58.0434C0.32671 57.3981 0.352366 56.7327 0.525767 56.0991L0.664814 55.6858L5.35272 43.5397V28.1737C5.35185 24.4519 6.0793 20.7665 7.49353 17.3279C8.90775 13.8893 10.981 10.7649 13.5949 8.13323C16.2088 5.50156 19.3121 3.41418 22.7275 1.99033C26.1428 0.566491 29.8034 -0.165914 33.5 -0.165038ZM40.1081 61.9988L40.1213 61.4988L26.8787 61.5022C26.871 63.2329 27.5319 64.8988 28.7217 66.1481C29.9114 67.3973 31.537 68.132 33.2548 68.1969C34.9727 68.2618 36.6483 67.6519 37.9277 66.4959C39.2072 65.34 39.9902 63.7286 40.1114 62.0022M33.5 4.83474C27.4906 4.83377 21.7159 7.18303 17.394 11.3869C13.0722 15.5907 10.5413 21.3204 10.3353 27.3671L10.322 28.1703V44.0096C10.3203 44.2164 10.2948 44.4222 10.2459 44.6229L10.1532 44.9163L5.67716 56.4991H61.3096L56.8468 44.9196C56.7742 44.7261 56.7242 44.5248 56.6978 44.3196L56.6747 44.013V28.1737C56.6755 25.1091 56.0767 22.0743 54.9125 19.2428C53.7482 16.4112 52.0414 13.8383 49.8893 11.671C47.7372 9.50365 45.1822 7.78441 42.3701 6.61144C39.558 5.43846 36.5439 4.83474 33.5 4.83474Z" fill="#023059"/>
</g>
<defs>
<clipPath id="clip0_72_644">
<rect width="67" height="73" fill="white"/>
</clipPath>
</defs>
</svg>
