<svg width="60" height="77" viewBox="0 0 60 77" fill="none" xmlns="http://www.w3.org/2000/svg">
<g clip-path="url(#clip0_72_635)">
<path d="M10.1674 70.0658H27.7397C26.025 68.6198 24.5996 66.8592 23.5395 64.8779H10.4561C7.15341 64.8779 5.38989 63.1688 5.38989 59.9472V11.1883C5.38989 7.9983 7.12058 6.15992 10.4561 6.15992H43.9644C47.1713 6.15992 48.9991 7.9653 48.9991 11.1883V39.2892C50.9678 40.3452 52.7194 41.7668 54.1611 43.4788V11.0907C54.1611 4.35592 50.8584 0.972046 44.2216 0.972046H10.1674C3.56207 0.972046 0.226562 4.38755 0.226562 11.092V59.9774C0.226562 66.7122 3.56207 70.0658 10.1674 70.0658ZM15.0735 19.3077H39.3798C40.5016 19.3077 41.3677 18.4057 41.3677 17.2768C41.3677 16.1823 40.5016 15.3435 39.3798 15.3435H15.0735C13.8874 15.3435 13.0528 16.1823 13.0528 17.2768C13.0528 18.4043 13.8874 19.3077 15.0735 19.3077ZM15.0735 30.5552H39.3798C40.5016 30.5552 41.3677 29.6518 41.3677 28.5243C41.3677 27.4284 40.5016 26.591 39.3798 26.591H15.0735C13.8874 26.591 13.0528 27.4298 13.0528 28.5243C13.0528 29.6518 13.8874 30.5552 15.0735 30.5552ZM39.7642 70.0644C42.651 70.0644 45.3749 69.2257 47.62 67.7132L54.8342 74.9952C55.6044 75.7363 56.309 76.0264 57.1751 76.0264C58.6499 76.0264 59.7731 74.8659 59.7731 73.2214C59.7731 72.5133 59.4202 71.8052 58.8756 71.2565L51.5643 63.9099C53.259 61.4722 54.1656 58.5691 54.1611 55.5953C54.1611 47.5708 47.7172 41.0932 39.7642 41.0932C31.8113 41.0932 25.303 47.6354 25.303 55.5953C25.303 63.5868 31.8113 70.0644 39.7642 70.0644ZM39.7642 65.4554C34.3122 65.4554 29.8877 61.0417 29.8877 55.5953C29.8877 50.2135 34.3122 45.7338 39.7642 45.7338C45.1191 45.7338 49.5436 50.2135 49.5436 55.5953C49.5436 61.0403 45.1519 65.4554 39.7642 65.4554Z" fill="#023059"/>
</g>
<defs>
<clipPath id="clip0_72_635">
<rect width="60" height="77" fill="white"/>
</clipPath>
</defs>
</svg>
