<svg width="21" height="21" viewBox="0 0 21 21" fill="none" xmlns="http://www.w3.org/2000/svg">
<path d="M17.0625 2.625H3.9375C3.5894 2.625 3.25556 2.76328 3.00942 3.00942C2.76328 3.25556 2.625 3.5894 2.625 3.9375V17.0625C2.625 17.4106 2.76328 17.7444 3.00942 17.9906C3.25556 18.2367 3.5894 18.375 3.9375 18.375H17.0625C17.4106 18.375 17.7444 18.2367 17.9906 17.9906C18.2367 17.7444 18.375 17.4106 18.375 17.0625V3.9375C18.375 3.5894 18.2367 3.25556 17.9906 3.00942C17.7444 2.76328 17.4106 2.625 17.0625 2.625ZM15.0938 11.1562H11.1562V15.0938C11.1562 15.2678 11.0871 15.4347 10.964 15.5578C10.841 15.6809 10.674 15.75 10.5 15.75C10.326 15.75 10.159 15.6809 10.036 15.5578C9.91289 15.4347 9.84375 15.2678 9.84375 15.0938V11.1562H5.90625C5.7322 11.1562 5.56528 11.0871 5.44221 10.964C5.31914 10.841 5.25 10.674 5.25 10.5C5.25 10.326 5.31914 10.159 5.44221 10.036C5.56528 9.91289 5.7322 9.84375 5.90625 9.84375H9.84375V5.90625C9.84375 5.7322 9.91289 5.56528 10.036 5.44221C10.159 5.31914 10.326 5.25 10.5 5.25C10.674 5.25 10.841 5.31914 10.964 5.44221C11.0871 5.56528 11.1562 5.7322 11.1562 5.90625V9.84375H15.0938C15.2678 9.84375 15.4347 9.91289 15.5578 10.036C15.6809 10.159 15.75 10.326 15.75 10.5C15.75 10.674 15.6809 10.841 15.5578 10.964C15.4347 11.0871 15.2678 11.1562 15.0938 11.1562Z" fill="#F2B705"/>
</svg>
