<svg width="75" height="82" viewBox="0 0 75 82" fill="none" xmlns="http://www.w3.org/2000/svg">
<g clip-path="url(#clip0_72_624)">
<path d="M6.39984 77.5C4.48039 77.5 2.879 76.8583 1.59567 75.575C0.312337 74.2916 -0.330718 72.6902 -0.333496 70.7708V17.5625C-0.333496 15.6458 0.309559 14.0458 1.59567 12.7625C2.88178 11.4791 4.48317 10.8361 6.39984 10.8333H13.7707V1.54163H18.2582V10.8333H48.0665V1.54163H52.2332V10.8333H59.604C61.5207 10.8333 63.1221 11.4763 64.4082 12.7625C65.6943 14.0486 66.3359 15.65 66.3332 17.5666V38.4H62.1665V34.2333H3.83317V70.7708C3.83317 71.4097 4.09984 71.9972 4.63317 72.5333C5.1665 73.0694 5.754 73.3361 6.39567 73.3333H32.3582V77.5H6.39984ZM3.83317 30.0625H62.1665V17.5625C62.1665 16.9236 61.8998 16.3361 61.3665 15.8C60.8332 15.2638 60.2443 14.9972 59.5998 15H6.39984C5.75817 15 5.16928 15.2666 4.63317 15.8C4.09706 16.3333 3.83039 16.9222 3.83317 17.5666V30.0625ZM42.2915 77.5V68.2916L64.5165 46.1791C64.9276 45.768 65.354 45.4902 65.7957 45.3458C66.2401 45.2013 66.6846 45.1291 67.129 45.1291C67.5873 45.1291 68.0512 45.218 68.5207 45.3958C68.9929 45.5763 69.4068 45.8458 69.7623 46.2041L73.6165 50.1375C73.9582 50.5486 74.2179 50.9763 74.3957 51.4208C74.5762 51.8625 74.6665 52.3055 74.6665 52.75C74.6665 53.1944 74.5818 53.6416 74.4123 54.0916C74.2429 54.5416 73.9776 54.9722 73.6165 55.3833L51.4998 77.5H42.2915ZM45.9832 73.8166H49.9415L64.3873 59.3416L62.429 57.3625L60.5332 55.3291L45.9832 69.8541V73.8166ZM62.429 57.3625L60.5332 55.3291L64.3873 59.3416L62.429 57.3625Z" fill="#023059"/>
</g>
<defs>
<clipPath id="clip0_72_624">
<rect width="75" height="82" fill="white"/>
</clipPath>
</defs>
</svg>
